#!OML:ASF Y:\EmotionMaleHayes\Project 1\Capture day 1\Session 1\Male1.ASF
:FULLY-SPECIFIED
:DEGREES
336
root -16.2373 16.7112 0.267224 88.7503 76.1402 90.4043
lowerback 6.60058 -1.14508 -17.4781
upperback 1.97345 -2.51506 -2.73649
thorax -0.950201 -1.199 7.01762
lowerneck -24.9888 3.94146 4.66727
upperneck 13.6041 4.12457 -1.97745
head 8.41782 1.98471 -0.834867
rclavicle 1.26042e-014 2.98177e-016
rhumerus -46.9074 1.95982 -83.242
rradius 31.3261
rwrist 1.82055
rhand -9.01837 -30.4383
rfingers 7.12502
rthumb 16.9288 -59.7205
lclavicle 1.26042e-014 2.98177e-016
lhumerus -18.7956 -29.7057 88.6758
lradius 46.9291
lwrist 1.42416
lhand -16.2565 -24.0342
lfingers 7.12502
lthumb 9.95266 5.71051
rfemur -24.3514 -7.1436 3.32658
rtibia 17.9887
rfoot -9.92925 -5.90128
rtoes 24.437
lfemur 16.7745 4.09438 -36.6782
ltibia 3.40893
lfoot -16.8802 -0.102437
ltoes 1.28556
337
root -16.1214 16.6906 0.269043 89.37 75.6965 90.8784
lowerback 6.57913 -1.31291 -17.9051
upperback 2.03669 -2.73988 -2.89303
thorax -0.795906 -1.32019 7.08769
lowerneck -25.6883 4.22181 5.1028
upperneck 13.9012 4.33831 -2.07967
head 8.65296 2.09341 -0.896138
rclavicle -3.10694e-014 -2.55438e-014
rhumerus -46.832 2.08807 -83.6286
rradius 31.4246
rwrist 1.85609
rhand -8.98877 -29.8354
rfingers 7.12502
rthumb 16.9572 -59.1152
lclavicle -3.10694e-014 -2.55438e-014
lhumerus -18.8916 -29.9068 88.4555
lradius 47.3607
lwrist 1.36947
lhand -16.3317 -24.0659
lfingers 7.12502
lthumb 9.88013 5.68227
rfemur -24.1925 -7.16194 2.57554
rtibia 16.0781
rfoot -10.1449 -5.37184
rtoes 23.1604
lfemur 17.0157 4.13166 -37.1854
ltibia 3.48831
lfoot -17.1903 -0.0330412
ltoes 0.370637
338
root -16.0042 16.6686 0.27379 89.9578 75.5281 91.3285
lowerback 6.29489 -1.26492 -17.9252
upperback 1.95967 -2.62856 -2.8413
thorax -0.744731 -1.26748 7.14018
lowerneck -25.1773 3.96704 4.58804
upperneck 13.5752 4.15291 -1.85736
head 8.43461 2.00601 -0.774808
rclavicle 7.64079e-016 -3.11098e-014
rhumerus -47.4105 1.97736 -83.4843
rradius 31.7022
rwrist 1.62538
rhand -9.04323 -29.3975
rfingers 7.12502
rthumb 16.9048 -58.6818
lclavicle 7.64079e-016 -3.11098e-014
lhumerus -19.3637 -30.5172 89.2137
lradius 47.6004
lwrist 1.22894
lhand -16.2652 -24.0252
lfingers 7.12502
lthumb 9.94435 5.7199
rfemur -24.0489 -7.32937 2.25943
rtibia 14.2816
rfoot -10.1266 -4.81796
rtoes 21.3195
lfemur 17.331 4.05527 -37.3559
ltibia 3.47766
lfoot -17.4376 -0.0516509
ltoes 0.228665
339
root -15.8898 16.6449 0.280389 90.7218 75.7563 91.9336
lowerback 6.61053 -1.30922 -17.7358
upperback 1.63255 -2.7999 -2.64571
thorax -1.23834 -1.30055 7.27806
lowerneck -25.0626 3.99072 4.59192
upperneck 13.7396 4.20863 -1.94798
head 8.47676 2.02286 -0.798932
rclavicle -6.42323e-015 -4.1546e-014
rhumerus -48.0252 2.24717 -83.5272
rradius 31.8477
rwrist 1.36868
rhand -9.06374 -29.4921
rfingers 7.12502
rthumb 16.8851 -58.778
lclavicle -6.42323e-015 -4.1546e-014
lhumerus -20.013 -30.622 89.9289
lradius 47.6981
lwrist 1.10173
lhand -16.1517 -24.0828
lfingers 7.12502
lthumb 10.0539 5.657
rfemur -23.9403 -7.33436 2.40607
rtibia 12.6018
rfoot -9.84032 -4.39423
rtoes 18.9107
lfemur 17.6203 3.8482 -37.0705
ltibia 3.51807
lfoot -17.7398 -0.116756
ltoes 0.919359
340
root -15.7746 16.6219 0.284322 91.7906 75.9661 92.876
lowerback 6.32947 -1.51777 -17.4632
upperback 1.78867 -2.97957 -2.55379
thorax -0.874459 -1.43058 7.22076
lowerneck -25.3953 4.15361 4.74229
upperneck 13.7951 4.38122 -2.05202
head 8.56136 2.09839 -0.828119
rclavicle 9.30561e-015 4.49253e-014
rhumerus -47.8314 2.49879 -83.7701
rradius 31.9002
rwrist 1.15423
rhand -9.00383 -30.0013
rfingers 7.12502
rthumb 16.9427 -59.2824
lclavicle 9.30561e-015 4.49253e-014
lhumerus -19.8021 -30.7418 89.9356
lradius 47.7217
lwrist 1.11626
lhand -16.0861 -24.2527
lfingers 7.12502
lthumb 10.1171 5.48404
rfemur -23.7067 -7.08742 2.36711
rtibia 10.9849
rfoot -9.70836 -3.8663
rtoes 17.6262
lfemur 17.9136 3.53548 -36.8715
ltibia 3.65263
lfoot -18.1575 -0.0768031
ltoes 1.01629
341
root -15.6571 16.5978 0.28886 92.3101 76.1126 93.35
lowerback 6.27021 -1.56711 -17.2029
upperback 1.81603 -3.01692 -2.4764
thorax -0.813314 -1.4581 7.16088
lowerneck -25.5076 4.15877 4.73041
upperneck 13.8446 4.40392 -2.13592
head 8.59925 2.09805 -0.849876
rclavicle -1.59276e-014 3.06128e-014
rhumerus -47.9717 2.55168 -83.8557
rradius 32.0498
rwrist 1.01158
rhand -8.82343 -30.3043
rfingers 7.12502
rthumb 17.1164 -59.5704
lclavicle -1.59276e-014 3.06128e-014
lhumerus -19.938 -31.0802 90.245
lradius 47.7956
lwrist 1.23663
lhand -15.7707 -24.2524
lfingers 7.12502
lthumb 10.4214 5.4693
rfemur -23.4178 -6.61717 2.22805
rtibia 9.56816
rfoot -9.81221 -3.26758
rtoes 18.0732
lfemur 18.3326 3.2281 -36.784
ltibia 3.6732
lfoot -18.4314 0.283548
ltoes -0.255644
342
root -15.5395 16.5743 0.298263 92.7978 76.2144 93.7685
lowerback 6.37081 -1.54189 -16.9431
upperback 1.69879 -3.00847 -2.43902
thorax -1.01336 -1.43403 7.06765
lowerneck -25.5063 4.07287 4.71639
upperneck 13.9433 4.31349 -2.23325
head 8.63231 2.04366 -0.894043
rclavicle 3.09359e-014 5.62561e-014
rhumerus -48.3387 2.39995 -83.8726
rradius 32.1849
rwrist 0.973363
rhand -8.67035 -30.0611
rfingers 7.12502
rthumb 17.2637 -59.3143
lclavicle 3.09359e-014 5.62561e-014
lhumerus -20.3347 -31.5802 90.7481
lradius 47.8346
lwrist 1.39534
lhand -15.4781 -24.2895
lfingers 7.12502
lthumb 10.7036 5.41788
rfemur -23.224 -6.39789 2.15455
rtibia 8.34421
rfoot -9.7702 -2.71671
rtoes 17.9774
lfemur 18.6844 2.91756 -36.7143
ltibia 3.72567
lfoot -18.5676 0.57197
ltoes -0.589254
343
root -15.4212 16.5581 0.303141 94.4118 75.685 95.1705
lowerback 5.91148 -1.66025 -17.3874
upperback 1.83504 -3.06928 -2.49588
thorax -0.566834 -1.50394 7.22467
lowerneck -25.623 4.03064 4.68296
upperneck 13.8556 4.27913 -2.32221
head 8.62106 2.01486 -0.923403
rclavicle 2.66371e-014 6.36111e-015
rhumerus -48.2431 2.34333 -83.8667
rradius 32.1961
rwrist 0.863595
rhand -8.74457 -29.5455
rfingers 7.12502
rthumb 17.1923 -58.805
lclavicle 2.66371e-014 6.36111e-015
lhumerus -20.2362 -32.0643 91.0853
lradius 47.763
lwrist 1.53777
lhand -15.3633 -24.3887
lfingers 7.12502
lthumb 10.8143 5.31284
rfemur -23.2386 -7.27555 1.41424
rtibia 7.64909
rfoot -9.77826 -1.61196
rtoes 17.8116
lfemur 18.7666 2.71645 -37.3222
ltibia 4.01059
lfoot -18.7711 0.339003
ltoes -0.0753437
344
root -15.2988 16.5386 0.307914 95.0835 75.7032 95.672
lowerback 5.63186 -1.68137 -17.2175
upperback 1.83783 -3.03139 -2.46103
thorax -0.424149 -1.4983 7.15571
lowerneck -25.6547 3.97997 4.64082
upperneck 13.8701 4.2288 -2.34572
head 8.62911 1.98598 -0.931848
rclavicle 1.77167e-014 1.39149e-015
rhumerus -48.3424 2.24409 -83.9038
rradius 32.1864
rwrist 0.795443
rhand -8.82574 -29.4078
rfingers 7.12502
rthumb 17.1142 -58.674
lclavicle 1.77167e-014 1.39149e-015
lhumerus -20.589 -32.4578 91.5642
lradius 47.7862
lwrist 1.5459
lhand -15.3622 -24.513
lfingers 7.12502
lthumb 10.8154 5.1885
rfemur -23.3803 -7.70185 1.37494
rtibia 7.40906
rfoot -9.92699 -0.794707
rtoes 17.3129
lfemur 19.0158 2.48488 -37.2921
ltibia 4.09867
lfoot -19.1257 0.336149
ltoes 0.370835
345
root -15.1736 16.5223 0.312517 96.0759 75.8681 96.4916
lowerback 5.60308 -1.74381 -16.8676
upperback 1.69777 -3.11464 -2.3807
thorax -0.556814 -1.52487 7.05738
lowerneck -25.6661 3.97451 4.5724
upperneck 13.9455 4.24692 -2.3507
head 8.65633 1.98984 -0.919565
rclavicle 9.29318e-015 1.94809e-014
rhumerus -48.6073 2.26058 -83.948
rradius 32.2649
rwrist 0.796199
rhand -8.64773 -29.7286
rfingers 7.12502
rthumb 17.2855 -58.9799
lclavicle 9.29318e-015 1.94809e-014
lhumerus -21.2524 -32.6127 92.1478
lradius 47.8218
lwrist 1.33266
lhand -15.5261 -24.6143
lfingers 7.12502
lthumb 10.6573 5.09539
rfemur -23.6041 -8.33095 1.59143
rtibia 7.61374
rfoot -10.0049 -0.0577917
rtoes 16.1035
lfemur 19.2742 2.1186 -37.1754
ltibia 4.20946
lfoot -19.4277 0.331451
ltoes 0.926513
346
root -15.0515 16.5055 0.320537 97.1092 76.1403 97.3178
lowerback 5.32646 -1.83776 -16.5485
upperback 1.71013 -3.17271 -2.20011
thorax -0.382905 -1.57308 7.06552
lowerneck -25.6973 3.98194 4.52027
upperneck 13.8323 4.28228 -2.39984
head 8.62343 1.99796 -0.92312
rclavicle 4.47266e-015 8.94531e-015
rhumerus -48.6211 2.40114 -83.9217
rradius 32.3051
rwrist 0.705534
rhand -8.28859 -30.1745
rfingers 7.12502
rthumb 17.6311 -59.3951
lclavicle 4.47266e-015 8.94531e-015
lhumerus -21.493 -32.7761 92.6435
lradius 47.6099
lwrist 1.19147
lhand -15.3366 -24.4875
lfingers 7.12502
lthumb 10.8401 5.21277
rfemur -23.7909 -8.21887 1.77161
rtibia 7.78961
rfoot -10.1724 -0.027405
rtoes 15.9654
lfemur 19.474 1.74275 -36.9295
ltibia 4.37249
lfoot -19.5487 0.491523
ltoes -0.268519
